<svg width="91" height="15" viewBox="0 0 91 15" fill="none" xmlns="http://www.w3.org/2000/svg">
<path d="M1.984 11L3.008 8.296H7.536L8.56 11H10.544L6.352 0.28H4.272L0.08 11H1.984ZM4.704 3.832L5.28 1.896L5.856 3.832L6.944 6.728H3.6L4.704 3.832ZM13.9136 11.176C15.4656 11.176 16.1216 10.136 16.3776 8.936V11H18.1696V0.28H16.3776V5.304C16.1216 4.088 15.4336 3.048 13.8816 3.048C11.9936 3.048 10.7776 4.6 10.7776 7.112C10.7776 9.624 11.9936 11.176 13.9136 11.176ZM12.6176 7.112C12.6176 5.368 13.4656 4.504 14.5856 4.504C15.8496 4.504 16.3776 5.352 16.3776 6.632V7.608C16.3776 8.888 15.8496 9.72 14.6016 9.72C13.4656 9.72 12.6176 8.872 12.6176 7.112ZM22.7574 11.176C24.3094 11.176 24.9654 10.136 25.2214 8.936V11H27.0134V0.28H25.2214V5.304C24.9654 4.088 24.2774 3.048 22.7254 3.048C20.8374 3.048 19.6214 4.6 19.6214 7.112C19.6214 9.624 20.8374 11.176 22.7574 11.176ZM21.4614 7.112C21.4614 5.368 22.3094 4.504 23.4294 4.504C24.6934 4.504 25.2214 5.352 25.2214 6.632V7.608C25.2214 8.888 24.6934 9.72 23.4454 9.72C22.3094 9.72 21.4614 8.872 21.4614 7.112ZM35.4413 8.664C37.3613 8.664 38.6573 7.512 38.6573 5.864C38.6573 4.888 38.2093 4.088 37.4413 3.592L38.8973 1.992L37.1693 1.4L36.7853 3.272C36.3853 3.128 35.9373 3.048 35.4413 3.048C33.5213 3.048 32.2093 4.216 32.2093 5.864C32.2093 6.856 32.6893 7.672 33.4733 8.152C32.7533 8.648 32.1453 9.336 32.1453 10.04C32.1453 10.632 32.5133 11 33.0733 11.16C32.3213 11.336 31.6173 11.736 31.6173 12.472C31.6173 13.448 32.8813 14.136 35.0573 14.136C37.8893 14.136 39.3293 13.016 39.3293 11.544C39.3293 10.376 38.4813 9.752 36.9293 9.752H34.4173C33.6973 9.752 33.4893 9.544 33.4893 9.144C33.4893 8.872 33.6653 8.568 33.8093 8.328C34.2733 8.552 34.8333 8.664 35.4413 8.664ZM35.4413 7.384C34.5933 7.384 33.9213 6.84 33.9213 5.864C33.9213 4.888 34.5933 4.344 35.4413 4.344C36.2893 4.344 36.9613 4.888 36.9613 5.864C36.9613 6.84 36.2893 7.384 35.4413 7.384ZM35.1373 12.792C33.7133 12.792 33.0733 12.456 33.0733 11.88C33.0733 11.608 33.2653 11.352 33.4413 11.176H36.6893C37.3773 11.176 37.7133 11.352 37.7133 11.768C37.7133 12.424 36.8173 12.792 35.1373 12.792ZM42.0608 11.16C43.6927 11.16 44.4448 9.944 44.6848 8.92V9.496C44.6848 10.616 45.3408 11 46.1728 11H47.2768V9.464H46.7808C46.4928 9.464 46.3648 9.352 46.3648 9V6.072C46.3648 4.152 45.2768 3.048 43.3408 3.048C41.6128 3.048 40.3968 3.944 39.7888 4.776L40.8608 6.056C41.3088 5.24 42.1248 4.632 43.1648 4.632C44.2368 4.632 44.5888 5.16 44.6528 5.944L42.0448 7.048C40.7808 7.544 40.0128 8.216 40.0128 9.32C40.0128 10.44 40.7808 11.16 42.0608 11.16ZM41.7408 9.048C41.7408 8.648 42.0128 8.376 42.6848 8.072L44.6848 7.176V8.008C44.6848 9.064 43.8848 9.768 42.7008 9.768C42.0448 9.768 41.7408 9.496 41.7408 9.048ZM50.4391 11V6.712C50.4391 5.416 51.2711 4.392 52.1671 4.392C52.6951 4.392 52.9031 4.744 52.9031 5.176C52.9031 5.624 52.6631 6.136 52.4071 6.392H54.2471C54.3911 6.152 54.5991 5.592 54.5991 4.84C54.5991 3.688 53.8791 3.048 52.9031 3.048C51.5111 3.048 50.7271 4.168 50.4391 5.416V3.208H48.6471V11H50.4391ZM57.4548 11V6.632C57.4548 5.352 57.9028 4.504 58.9588 4.504C60.0148 4.504 60.4628 5.048 60.4628 6.12V11H62.2548V6.632C62.2548 5.352 62.7028 4.504 63.7587 4.504C64.8148 4.504 65.2628 5.048 65.2628 6.12V11H67.0548V5.576C67.0548 3.96 66.2708 3.048 64.7828 3.048C63.2948 3.048 62.5268 4.12 62.2548 5.352C62.1748 3.88 61.4068 3.048 59.9828 3.048C58.5108 3.048 57.7428 4.104 57.4548 5.336V3.208H55.6628V11H57.4548ZM72.3219 11.16C74.0499 11.16 75.1059 10.376 75.6979 9.48L74.5939 8.328C74.3059 8.984 73.6979 9.688 72.3379 9.688C71.1059 9.688 70.2899 8.936 70.1939 7.544H75.7619C75.7939 7.384 75.8259 7.048 75.8259 6.76C75.8259 4.6 74.5299 3.048 72.1939 3.048C70.0019 3.048 68.4819 4.664 68.4819 7.112C68.4819 9.544 70.0019 11.16 72.3219 11.16ZM72.1939 4.488C73.3779 4.488 74.0819 5.16 74.2099 6.392H70.2099C70.3539 5.128 71.0899 4.488 72.1939 4.488ZM79.1891 11V6.632C79.1891 5.352 79.6371 4.504 80.9491 4.504C82.1491 4.504 82.4691 5.16 82.4691 6.12V11H84.2771V5.576C84.2771 3.96 83.3491 3.048 81.8291 3.048C80.2771 3.048 79.4771 4.104 79.1891 5.336V3.208H77.3971V11H79.1891ZM88.7288 11.176C89.8648 11.176 90.6328 10.648 90.9688 10.152L90.4088 8.552C90.1848 9 89.7368 9.496 89.1288 9.496C88.6008 9.496 88.2008 9.288 88.2008 8.44V4.6H90.5848V3.208H88.2008V1.128L86.4088 2.264V3.208H85.1928V4.6H86.4088V8.872C86.4088 10.248 87.2568 11.176 88.7288 11.176Z" fill="white"/>
</svg>
